<svg width="91" height="90" viewBox="0 0 91 90" fill="none" xmlns="http://www.w3.org/2000/svg">
<path fill-rule="evenodd" clip-rule="evenodd" d="M19.7512 7.30664C4.31213 17.8483 -3.55821 37.3459 1.55379 56.4268C8.02711 80.584 32.8558 94.9183 57.0121 88.4459C76.7506 83.1567 89.9293 65.6143 90.5602 46.197C87.8287 62.1322 76.1295 75.8222 59.4871 80.2815C36.689 86.3903 13.2565 72.8613 7.14812 50.0637C2.85666 34.0495 8.25467 17.7225 19.7512 7.30664Z" fill="white"/>
<path fill-rule="evenodd" clip-rule="evenodd" d="M70.3581 69.7786C83.3851 60.8834 90.0271 44.4314 85.7129 28.3298C80.2506 7.94605 59.2993 -4.15062 38.9156 1.31164C22.2602 5.77399 11.1402 20.5772 10.6079 36.9618C12.9125 23.5145 22.7844 11.9631 36.8274 8.20082C56.0653 3.04598 75.8382 14.4618 80.9931 33.6997C84.6134 47.2126 80.0583 60.9896 70.3581 69.7786Z" fill="#F99017"/>
<path fill-rule="evenodd" clip-rule="evenodd" d="M64.4014 70.2025L57.9656 55.4242C57.2512 53.676 55.3438 52.8024 53.5148 53.1977L40.644 56.139V42.3169C40.644 40.1685 38.8985 38.4199 36.7528 38.4199C34.6071 38.4199 32.8585 40.1681 32.8585 42.3169L32.937 60.9851C32.937 62.1808 33.4135 63.3691 34.3684 64.0839C35.2393 64.879 36.5145 65.1177 37.6238 64.879L52.0852 61.5397L57.2503 73.3004C57.8045 74.7308 59.2341 75.6058 60.7467 75.6058C61.3017 75.6058 61.7778 75.5251 62.3324 75.3676C64.3224 74.4935 65.1965 72.1893 64.4014 70.2025Z" fill="white"/>
<path fill-rule="evenodd" clip-rule="evenodd" d="M43.9806 30.1582C43.9806 26.7435 41.1995 24.0423 37.8634 24.0423C34.4482 24.0423 31.747 26.7435 31.747 30.1582C31.747 33.4939 34.4482 36.1987 37.8634 36.1987C41.1995 36.1987 43.9806 33.4939 43.9806 30.1582Z" fill="#030303"/>
<path fill-rule="evenodd" clip-rule="evenodd" d="M43.9807 30.1582C43.9807 26.7435 41.1996 24.0423 37.8634 24.0423C34.4483 24.0423 31.7471 26.7435 31.7471 30.1582C31.7471 33.4939 34.4483 36.1987 37.8634 36.1987C41.1996 36.1987 43.9807 33.4939 43.9807 30.1582Z" fill="white"/>
<path fill-rule="evenodd" clip-rule="evenodd" d="M47.5587 66.5486C48.6711 66.3103 49.861 66.1515 51.0524 65.8325C51.2112 66.3103 51.5307 66.7851 51.6904 67.3428C48.671 71.951 43.3484 75.3684 37.3084 75.3684C27.8536 75.3684 20.2251 67.5811 20.2251 58.1259C20.2251 51.6119 24.2765 46.0506 29.6013 43.1874V47.718C26.4218 50.102 24.1163 53.9147 24.1163 58.2071C24.1186 65.4371 29.9962 71.3955 37.2294 71.3955C41.4379 71.3951 45.172 69.5657 47.5587 66.5486Z" fill="#F99017"/>
</svg>
